<?xml version="1.0" encoding="UTF-8"?>
<svg id="Capa_1" data-name="Capa 1" xmlns="http://www.w3.org/2000/svg" viewBox="0 0 123.73 210.62">
  <defs>
    <style>
      .cls-1 {
        stroke-width: 0px;
      }
    </style>
  </defs>
  <path class="cls-1" d="m20.21,87.99c.33.18.67.35,1.01.52l66.8,32.48,32.02-67.02c.16-.34.32-.69.47-1.03,8.21-18.58.2-40.43-18.24-49.24-10.7-5.11-22.61-4.73-32.54.01-7.05,3.37-13.1,8.94-17.01,16.31-.25.48-.5.96-.73,1.45l-31.79,66.53Z"/>
  <path class="cls-1" d="m3.71,70.89c3.4,7.11,9.03,13.2,16.5,17.1.33.18.67.35,1.01.52l66.8,32.48,32.02-67.02c.16-.34.32-.69.47-1.03L54.2,20.69c-.49-.24-.98-.46-1.47-.68-18.42-8.01-40.05-.14-48.93,18.1-5.23,10.75-4.88,22.77-.1,32.78Z"/>
  <path class="cls-1" d="m95.11,188.55c-.22.12-.45.23-.68.34l-44.68,21.73-21.42-44.83c-.11-.23-.22-.46-.32-.69-5.49-12.43-.14-27.05,12.2-32.94,7.16-3.42,15.13-3.17,21.77,0,4.71,2.25,8.76,5.98,11.38,10.91.17.32.33.64.49.97l21.26,44.51Z"/>
  <path class="cls-1" d="m106.15,177.11c-2.27,4.75-6.04,8.83-11.04,11.44-.22.12-.45.23-.68.34l-44.68,21.73-21.42-44.83c-.11-.23-.22-.46-.32-.69l44.36-21.57c.33-.16.66-.31.99-.45,12.32-5.36,26.79-.09,32.73,12.11,3.5,7.19,3.27,15.23.06,21.93Z"/>
</svg>