<?xml version="1.0" encoding="UTF-8"?>
<svg id="Capa_1" data-name="Capa 1" xmlns="http://www.w3.org/2000/svg" viewBox="0 0 319.8 257.36">
  <defs>
    <style>
      .cls-1 {
        stroke-width: 0px;
      }
    </style>
  </defs>
  <path class="cls-1" d="m15.73,44.24c-.27-.48-.53-.97-.77-1.47-.12-.24-.21-.53-.34-.75-.01-.02.51,1.32.27.64-.38-1.1-.78-2.19-1.06-3.33-.11-.47-.22-.93-.3-1.41-.05-.27-.09-.54-.14-.81-.16-.87.15,1.43.07.54-.1-1.1-.18-2.19-.18-3.29,0-1.04.08-2.06.17-3.09.09-1.15-.03.42-.08.53.09-.18.1-.64.13-.82.11-.61.24-1.22.38-1.82.24-1,.54-2,.88-2.97.1-.29.68-1.71.26-.75s-.03.08.08-.15c.14-.31.29-.62.45-.93.46-.92.98-1.81,1.54-2.67.3-.46.63-.9.94-1.35.41-.59-.43.54-.41.53.28-.26.54-.65.79-.94.68-.77,1.41-1.5,2.18-2.18.28-.25.98-.61,1.11-.93-.23.59-1.02.73-.34.29.29-.19.57-.39.86-.58.87-.56,1.78-1.07,2.72-1.53,0,0,.72-.28.75-.35-.04.08-1.54.59-.44.19.52-.19,1.04-.39,1.57-.56,1.06-.34,2.13-.61,3.22-.83.31-.06,1.87-.29.76-.15s-.11.02.15,0c.35-.03.69-.06,1.04-.09,1.04-.07,2.09-.08,3.13-.04.56.02,1.11.06,1.67.11.2.02.42.06.62.07-1.85-.04-.63-.09-.11,0,1.03.18,2.05.41,3.05.7.47.13.93.28,1.39.44.26.09.52.18.78.28.23.09,1.41.46.36.13s.46.23.72.36c.5.25.98.51,1.46.79s.95.57,1.41.88c.23.15.45.32.68.47.72.49-.12-.07-.35-.29.8.78,1.7,1.44,2.49,2.25.35.36.69.74,1.03,1.12.19.22.37.43.55.65.91,1.11-.15-.15-.12-.17.17-.15,3.06,5.32,3.33,5.78.01.02-.52-1.31-.27-.63.09.26.2.52.3.78.17.46.33.91.48,1.38.36,1.13.67,2.28.93,3.44.21.95.18,2.26.56,3.13-.05-.12-.18-1.66-.08-.49.03.29.06.57.09.86.05.58.1,1.15.13,1.73.14,2.35.13,4.72,0,7.07-.06,1.12-.15,2.25-.26,3.37-.05.53-.11,1.05-.17,1.58-.02.16-.02.72-.11.9.13-.94.16-1.15.08-.64-.03.23-.06.45-.1.68-.35,2.34-.77,4.66-1.26,6.97-.98,4.63-2.26,9.18-3.46,13.77-2.54,9.72-4.68,19.88-4.4,29.98s3.46,20.78,10.8,28.51,17.38,11.08,27.6,12.01c10.19.93,20.44-1.07,30.13-4.12,10.87-3.42,21.39-8.02,32.56-10.42,1.23-.27,2.47-.5,3.72-.71.36-.06.71-.11,1.07-.17,1.47-.24-.23.09-.29.03.15.14,1.58-.17,1.82-.19,2.12-.19,4.26-.24,6.39-.16,1.11.04,2.21.12,3.31.24.27.03,1.95.18.77.08-1.06-.09-.13-.01.14.03.34.05.68.11,1.02.17,2.09.38,4.16.9,6.18,1.57.51.17,1.03.35,1.53.54.25.1.5.2.76.29.68.25-.69-.3-.65-.28,1.01.51,2.06.94,3.06,1.49.87.47,1.72.98,2.54,1.53.35.24.88.79,1.28.9.02,0-1.1-.89-.57-.44.25.21.51.41.75.62.79.67,1.54,1.39,2.25,2.14.31.33.61.67.91,1.01.17.2.32.41.49.6.52.59-.96-1.38-.21-.26.54.82,1.09,1.63,1.57,2.49.22.41.44.82.64,1.24-.03-.06.35.72.34.73-.34-.82-.41-.98-.22-.49.06.16.12.32.18.48.44,1.2.79,2.43,1.04,3.68.07.33.12.66.19,1,.25,1.25.03-.1-.02-.26.22.65.15,1.59.18,2.27.05,1.28.03,2.55-.06,3.83-.03.38.06,1.76-.2,2.05,0,0,.21-1.28.06-.48-.08.43-.14.86-.22,1.28-.51,2.76-1.28,5.47-2.2,8.12-.44,1.25-.93,2.48-1.42,3.71-.28.71.14-.31.16-.37-.08.31-.29.66-.42.96-.32.72-.65,1.43-.99,2.13-4.91,10.28-11.24,20.17-13.77,31.41-4.7,20.92,5.63,44.36,25.53,53.36,10.22,4.62,21.69,5.86,32.62,3.06,11.02-2.83,20.04-10.03,27.72-18.14,3.66-3.86,7.08-7.93,10.68-11.84,1.76-1.91,3.56-3.78,5.43-5.57.9-.86,1.83-1.71,2.77-2.53.5-.43,1.01-.86,1.52-1.28.16-.13.62-.59.77-.62l-.56.43c.2-.15.4-.3.59-.45,2.05-1.52,4.21-2.9,6.49-4.06.59-.3,1.19-.58,1.79-.86,1.16-.54-1.07.4.31-.12,1.13-.43,2.28-.78,3.45-1.08.48-.12.97-.23,1.46-.33.23-.05,2.19-.35,1.02-.2-1.08.14.5-.04.82-.07.64-.05,1.28-.08,1.92-.09,1.06-.02,2.12.02,3.18.11.14.01.66.13.84.09-.13.03-1.65-.29-.52-.06.55.11,1.1.2,1.64.33,1.08.25,2.13.59,3.16.98,1.1.4-1.23-.58.11.07.49.24.97.5,1.44.77.41.24.81.5,1.21.77.05.04.55.46.66.48-.64-.07-.98-.83-.38-.27.81.77,1.6,1.51,2.32,2.37,2.24,2.67,7.11,2.48,9.39,0,2.61-2.84,2.39-6.54,0-9.39-7.11-8.48-18.86-10.6-29.29-8.88-10.93,1.8-20.27,9.08-27.82,16.79s-14.05,16.42-22.48,23.25c-1,.81.08,0,.15-.11-.1.18-.61.46-.81.6-.54.39-1.09.78-1.65,1.15-1.12.74-2.26,1.44-3.44,2.08-.58.32-1.17.62-1.77.91-.41.2-2.03,1.22-.56.29-.99.62-2.42.91-3.53,1.25-1.2.36-2.41.66-3.63.91-.61.12-1.23.23-1.84.33-.56.09-.87-.15.37-.05-.29-.02-.64.07-.93.1-2.49.24-5,.26-7.5.06-.57-.05-1.33,0-1.87-.19,1.25.45.89.13.37.04-.31-.06-.62-.1-.92-.16-1.23-.22-2.45-.5-3.66-.84s-2.39-.72-3.56-1.16c-.21-.08-.68-.34-.87-.34.14,0,1.41.64.29.12-.57-.26-1.13-.52-1.69-.8-1.12-.56-2.21-1.18-3.26-1.84-.53-.33-1.05-.68-1.56-1.04-.25-.18-.5-.36-.75-.54-.71-.51.06-.06.27.22-.66-.88-1.9-1.59-2.7-2.37-.86-.83-1.69-1.7-2.47-2.61-.34-.39-.96-.91-1.15-1.38.39.98.57.75.22.27-.18-.24-.35-.48-.53-.73-.69-.98-1.34-1.99-1.95-3.02s-1.17-2.1-1.68-3.18c-.13-.27-.25-.54-.38-.82-.23-.5-.57-.61.13.35-.32-.43-.46-1.16-.65-1.68-.82-2.25-1.45-4.58-1.87-6.94-.05-.3-.1-.59-.15-.89-.21-1.17.05.27.05.43,0-.59-.13-1.2-.18-1.79-.1-1.27-.14-2.54-.11-3.81.02-1.13.12-2.24.21-3.36.04-.45-.08-1.15-.07.42,0-.32.11-.74.16-1.04.13-.77.28-1.55.46-2.31.61-2.72,1.47-5.38,2.48-7.97.22-.57.44-1.14.69-1.7-.63,1.44.21-.44.38-.82.62-1.36,1.26-2.71,1.93-4.05,1.26-2.54,2.57-5.04,3.87-7.55,5.44-10.51,10.69-21.94,10.19-34.07-.24-5.85-1.78-11.73-4.94-16.7-2.73-4.29-6.37-7.8-10.6-10.59-7.97-5.25-18.02-7.47-27.47-7.41-11.33.07-22.32,3.68-32.88,7.42-5.47,1.94-10.92,3.94-16.5,5.57-2.53.74-5.07,1.41-7.65,1.92-1.08.22-2.17.41-3.26.57.06,0-.87.1-.88.13.05-.16,1.47-.17.44-.07-.66.07-1.33.15-1.99.2-2.36.21-4.73.29-7.1.22-1.1-.03-2.2-.1-3.3-.2-.42-.04-1.36-.33-1.74-.19.62-.23,1.3.2.47.05-.36-.06-.71-.12-1.07-.18-2.25-.4-4.47-.98-6.62-1.75-.21-.08-2.01-.8-.98-.36.95.41-.47-.22-.75-.35-1.07-.52-2.12-1.09-3.13-1.72-.48-.3-.94-.61-1.4-.93-.17-.12-.34-.25-.51-.37-.92-.66.25.16.34.26-.74-.89-1.85-1.59-2.67-2.44-.41-.42-.8-.85-1.18-1.3-.14-.17-.29-.34-.43-.51-.75-.88.16.16.22.3-.49-1.07-1.43-2.04-2.02-3.08-.53-.93-.9-1.95-1.44-2.86.9,1.53.08.17-.12-.39-.22-.6-.42-1.21-.6-1.82-.31-1.03-.57-2.07-.79-3.12-.12-.56-.22-1.13-.32-1.7,0-.02-.07-.79-.13-.86.25.24.19,1.55.04.25-.53-4.79-.33-9.64.25-14.41.21-1.72-.18,1.18.07-.54.08-.54.16-1.07.25-1.61.21-1.31.45-2.61.71-3.91.48-2.44,1.03-4.86,1.63-7.27,2.44-9.88,5.22-19.52,6.23-29.69s.07-20.41-4.68-29.39C59.74,8.88,50.66,2.16,40.43.51s-21.64.79-29.68,8.28C3.41,15.63-.56,26.26.06,36.23c.32,5.19,1.67,10.16,4.21,14.71,1.69,3.04,6.11,4.29,9.08,2.38s4.19-5.83,2.38-9.08h0Z"/>
  <path class="cls-1" d="m122.67,55.11c-2.65,9.91,1.28,20.22,8.38,27.3,7.64,7.62,18.33,10.7,28.93,10.61s21.54-3.29,32.02-6.21c2.57-.72,5.15-1.41,7.75-2.02,1.22-.29,2.44-.55,3.67-.79,1.35-.27,2.84-.33,4.16-.71-.16.05-1.58.19-.37.05.31-.04.62-.07.93-.11.62-.07,1.25-.13,1.87-.17,1.17-.09,2.33-.14,3.5-.15.98,0,1.97.02,2.95.07.49.03.98.06,1.48.11.59.05,2.65.45.44.02,2.06.4,4.1.72,6.12,1.34.93.28,1.84.62,2.76.96,1,.37-.51-.22-.58-.25.21.11.44.19.66.3.55.25,1.08.52,1.62.8.84.45,1.67.94,2.46,1.47.39.26.76.6,1.17.82-1.41-.77-.82-.65-.36-.27.23.19.46.38.68.58.72.63,1.4,1.3,2.04,2.01.21.23,1.36,1.67.64.71-.65-.86-.11-.14.04.07.2.27.39.55.57.83.62.95,1.18,1.95,1.67,2.97.12.24.22.49.34.73.37.78-.5-1.29-.2-.48.21.56.43,1.12.62,1.7.36,1.08.66,2.19.91,3.3.12.53.22,1.06.32,1.59.05.27.09.53.14.8.17,1.06.01.21-.03-.35.4,4.87.49,9.63.17,14.51-.69,10.47-2.08,21.72,1.98,31.72,1.88,4.65,4.4,9.03,8.11,12.48,4.09,3.81,8.96,6.12,14.5,6.77,10.66,1.26,20.22-5.48,27.54-12.45,3.2-3.04,6.08-6.37,9.16-9.52.67-.69,1.36-1.37,2.07-2.02.35-.32.7-.64,1.05-.94.22-.19.44-.38.67-.56.99-.81-.39.16-.39.29,0-.35,1.95-1.33,2.26-1.52.44-.26.88-.5,1.34-.72.25-.12,1-.44-.02-.01-1.09.46-.1.05.15-.04.88-.32,1.77-.52,2.67-.72,1.27-.29-1.42.13-.52.06.24-.02.49-.05.73-.06.57-.04,1.14-.04,1.72-.03,3.47.06,6.8-3.09,6.64-6.64s-2.92-6.57-6.64-6.64c-4.86-.08-9.72,1.3-13.78,3.98-3.74,2.47-6.88,5.64-9.91,8.91s-6.11,6.55-9.52,9.46c-.42.36-.85.71-1.28,1.06-1.27,1.02,1.01-.74-.29.23-.93.69-1.89,1.34-2.88,1.95-.91.56-1.85,1.08-2.81,1.54-.16.08-.56.2-.72.33.78-.65,1.13-.45.5-.22s-1.22.45-1.84.63c-.49.15-.99.27-1.5.38-.25.05-.5.1-.76.15-.64.12-.59-.21.62-.07-1.05-.12-2.22.14-3.3.06-1.64-.13,1.35.27-.15-.02-.46-.09-.92-.2-1.38-.33s-.89-.29-1.33-.44c-.78-.26,1.36.63.62.27-.26-.13-.53-.24-.79-.38-.83-.43-1.6-.94-2.38-1.46-.86-.57.45.35.5.4-.16-.16-.37-.3-.54-.45-.45-.38-.88-.79-1.3-1.21-.34-.34-.66-.69-.97-1.04-.4-.46-1.11-1.69-.1-.05-.54-.87-1.19-1.68-1.72-2.56s-.99-1.82-1.44-2.76c-.2-.42-.29-1.05.23.58-.07-.23-.19-.46-.27-.68-.2-.51-.38-1.03-.55-1.55-.3-.92-.55-1.85-.76-2.79-.13-.6-.25-1.2-.35-1.81-.05-.31-.1-.63-.15-.94-.14-.85.15,1.4.03.12-.5-5.32-.25-10.62.13-15.94.7-9.71,1.46-19.98-2.03-29.3-1.84-4.92-4.54-9.48-8.46-13.03-3.66-3.31-7.84-5.64-12.45-7.35-9.24-3.43-19.28-3.12-28.83-1.4-10.29,1.85-20.11,5.6-30.35,7.63-1.18.23-2.36.44-3.55.63-.29.05-.61.07-.89.13.15-.04,1.61-.19.42-.06-.67.08-1.34.16-2.01.22-2.44.23-4.9.32-7.36.22-.38-.02-3.41-.46-3.53-.28.09-.13,1.47.23.45.06-.29-.05-.58-.09-.87-.14-.72-.13-1.44-.28-2.16-.45-1.15-.27-2.28-.6-3.39-.99-.56-.19-1.1-.45-1.66-.63.08.03,1.54.71.59.24-.27-.14-.55-.26-.82-.39-.87-.44-1.71-.92-2.52-1.45-.41-.27-.81-.54-1.21-.83-.48-.35-.76-.9.32.26-.2-.22-.48-.39-.71-.58-.74-.63-1.45-1.31-2.13-2.01-.34-.35-.66-.71-.98-1.08-.16-.18-.31-.38-.47-.56-.52-.61.92,1.26.26.34-.56-.78-1.1-1.58-1.58-2.41-.24-.41-.47-.83-.68-1.26-.11-.21-.2-.43-.31-.64-.6-1.18.56,1.52.11.28-.32-.88-.63-1.76-.86-2.68-.11-.45-.2-.91-.29-1.37-.1-.5.02-1.07.08.73-.01-.29-.06-.58-.08-.87-.07-.93-.07-1.86,0-2.79.12-1.56-.29,1.57-.01.02.1-.53.22-1.05.36-1.57.89-3.35-1.12-7.36-4.64-8.16s-7.21,1.05-8.16,4.64h0Z"/>
</svg>