<?xml version="1.0" encoding="UTF-8"?>
<svg id="Capa_1" data-name="Capa 1" xmlns="http://www.w3.org/2000/svg" viewBox="0 0 332.38 296.18">
  <defs>
    <style>
      .cls-1 {
        fill: #fff;
        stroke-width: 0px;
      }

      .cls-2 {
        fill: none;
        stroke: #fff;
        stroke-miterlimit: 10;
        stroke-width: 11.76px;
      }
    </style>
  </defs>
  <path class="cls-1" d="m.42,102.99c.46,33.78,4.19,67.54,11.05,100.62,3.07,14.79,6.35,29.88,13.34,43.39s18.2,23.73,32.01,29.68c15.32,6.6,31.89,8.32,48.44,8.09s33.36-1.49,49.79-4.11c29.24-4.67,58.42-15.68,79.69-36.95,10.27-10.27,18.1-22.99,24.19-36.12s10.11-26.19,12.16-40.13c1.08-7.34,1.75-14.71,1.92-22.12s-.19-15.48-.6-23.2c-.46-8.56-1.19-17.09-2.42-25.58-1.06-7.31-2.47-14.72-4.97-21.7-4.61-12.88-11.8-24.72-20.18-35.49-3.71-4.77-7.75-9.35-12.38-13.25-5.87-4.95-12.39-8.62-19.45-11.57-13.81-5.77-28.79-7.74-43.55-9.47-16.74-1.96-33.56-3.36-50.39-4.19-15.13-.74-30.48-1.53-45.58-.02s-29.57,5.05-41.54,13.98c-6.14,4.58-11.27,9.95-15.6,16.28-4.09,5.98-7.17,12.67-9.51,19.5s-3.55,13.41-4.5,20.31C1.17,79.34.27,87.78.05,96.27c-.2,7.75.15,15.51.95,23.22.21,2.04.7,3.8,2.2,5.3,1.3,1.3,3.44,2.28,5.3,2.2,3.72-.17,7.93-3.32,7.5-7.5-1.57-15.21-1.1-30.4.92-45.54l-.27,1.99c.86-6.4,1.93-12.73,3.85-18.92.46-1.49.96-2.96,1.5-4.42.25-.66.5-1.32.76-1.98.1-.26.23-.52.32-.78-.77,2.26-.15.36.08-.15,1.2-2.69,2.56-5.31,4.08-7.84.79-1.31,1.63-2.6,2.52-3.86.4-.57.82-1.13,1.23-1.69.72-.98-.36.45-.41.53.31-.45.7-.87,1.05-1.3,1.87-2.24,3.91-4.35,6.11-6.28.58-.51,1.17-1,1.77-1.48.46-.37,1.3-.73-.36.27.36-.22.7-.53,1.05-.78,1.28-.93,2.61-1.79,3.97-2.61,1.23-.73,2.48-1.42,3.75-2.06.64-.32,1.28-.63,1.93-.93.39-.18.78-.35,1.17-.52,1.37-.61-1.52.6-.21.09,6.62-2.58,13.47-4.22,20.51-5.18l-1.99.27c12.95-1.71,26.08-1.36,39.1-.91,14.9.52,29.78,1.48,44.62,2.89,8.13.77,16.25,1.65,24.35,2.73l-1.99-.27c9.1,1.23,18.2,2.84,26.93,5.72,2.12.7,4.19,1.53,6.27,2.33-.11-.04-1.71-.74-.56-.23.2.09.41.18.61.27.47.21.94.43,1.41.65,1.07.51,2.13,1.04,3.17,1.6,1.96,1.05,3.88,2.2,5.72,3.45.49.34.98.68,1.47,1.03.26.19,1.55,1.17.37.26s0,0,.27.22c.39.32.78.64,1.16.97,2.8,2.4,5.37,5.05,7.8,7.82,1.36,1.56,2.67,3.15,3.95,4.78.78.99-1.11-1.46-.05-.06.29.38.58.77.86,1.15.66.89,1.3,1.79,1.94,2.69,4.7,6.7,8.88,13.83,12.2,21.31.23.53,1.04,2.5.06.09.18.45.37.9.55,1.35.37.93.73,1.87,1.06,2.81.72,2.03,1.32,4.09,1.86,6.18,1.49,5.72,2.54,11.54,3.33,17.39l-.27-1.99c1.16,8.77,1.71,17.61,2.11,26.45.36,7.97.58,15.93.15,23.9-.23,4.29-.63,8.57-1.2,12.83l.27-1.99c-1.46,10.69-4.07,21.21-7.94,31.29-.46,1.2-.95,2.4-1.44,3.59-.58,1.41.58-1.35.17-.4-.14.33-.29.66-.43.99-.29.66-.59,1.32-.89,1.98-1.16,2.54-2.39,5.04-3.69,7.51-2.68,5.1-5.63,10.08-8.86,14.84-.72,1.06-1.46,2.1-2.22,3.12-.16.22-.36.45-.51.68,1.09-1.69.61-.78.26-.34-.48.61-.97,1.22-1.47,1.81-1.72,2.06-3.53,4.05-5.42,5.96s-3.86,3.74-5.91,5.49c-.97.83-1.95,1.64-2.95,2.44-.22.17-.46.34-.67.53,1.51-1.35.77-.59.34-.26-.62.47-1.25.94-1.88,1.4-4.38,3.18-9,6.04-13.77,8.59-2.33,1.24-4.7,2.42-7.1,3.51-.58.27-1.17.53-1.76.79-.49.21-2.91,1.11-.57.26-1.27.47-2.51,1.02-3.77,1.51-13.29,5.09-27.27,8.13-41.34,10.03l1.99-.27c-10.48,1.4-21.03,2.17-31.6,2.64s-21.78.62-32.58-.82l1.99.27c-4.73-.65-9.42-1.59-14-2.95-2.04-.61-4.05-1.29-6.03-2.07-.48-.19-.95-.4-1.43-.57.11.04,1.72.75.58.24-.2-.09-.4-.18-.6-.27-1.07-.48-2.12-.98-3.16-1.51-1.88-.96-3.72-2-5.5-3.14-.86-.55-1.7-1.12-2.52-1.71-.47-.34-.93-.7-1.4-1.04-.05-.04,1.28,1.02.66.5-.28-.23-.57-.45-.85-.69-1.68-1.39-3.27-2.88-4.77-4.47-.71-.75-1.39-1.52-2.05-2.32-.19-.23-1.29-1.65-.52-.61.74.98-.38-.51-.6-.82-2.54-3.51-4.66-7.29-6.47-11.22-.25-.54-.48-1.08-.72-1.62-.53-1.2.67,1.64-.02-.05-.42-1.03-.82-2.07-1.21-3.11-.77-2.1-1.48-4.22-2.13-6.35-2.77-9.03-4.74-18.31-6.62-27.56-2.33-11.45-4.26-22.97-5.82-34.55l.27,1.99c-2.74-20.57-4.26-41.28-4.55-62.03-.05-3.92-3.41-7.68-7.5-7.5s-7.56,3.3-7.5,7.5H.42Z"/>
  <circle class="cls-2" cx="253.94" cy="217.74" r="72.56"/>
</svg>